<svg xmlns="http://www.w3.org/2000/svg" width="388" height="586.062" viewBox="0 0 388 586.062">
  <g id="Background" transform="translate(1 -425.755)">
    <path id="Path_5" data-name="Path 5" d="M609,447.47s-103.853-50.361-217.56-30.729-158.375-41.986-158.375-41.986V777.523H609Z" transform="translate(-234 51)" fill="#741010" opacity="0.2"/>
    <path id="Path_4" data-name="Path 4" d="M609,387.47s-60.072-12.841-157.56,29.271-218.375-21.986-218.375-21.986V757.523H609Z" transform="translate(-234 71)" fill="#9f2121" opacity="0.4"/>
    <path id="Path_7" data-name="Path 7" d="M214,458.849s58.257-43.116,190.485-5.179S589,490.043,589,490.043L588,786.67H213Z" transform="translate(-214 41.392)" fill="#c50c0c"/>
    <path id="Path_8" data-name="Path 8" d="M212,459.923s60.257-45.343,192.485-5.447S599,492.728,599,492.728l-1,469.7H211Z" transform="translate(-212 49.392)" fill="#fff"/>
  </g>
</svg>
