<svg xmlns="http://www.w3.org/2000/svg" width="163.136" height="130.522" viewBox="0 0 163.136 130.522">
  <g id="food-truck" transform="translate(0 -47.98)">
    <g id="Group_75" data-name="Group 75" transform="translate(0 47.98)">
      <g id="Group_74" data-name="Group 74">
        <path id="Path_29" data-name="Path 29" d="M147.948,83.326H114.2V47.98H0V164.894H22a16.292,16.292,0,0,0,32.138,0h52.149a16.292,16.292,0,0,0,32.138,0h24.715V98.514ZM5.438,53.418H108.757v76.13H5.438ZM38.065,173.051a10.876,10.876,0,1,1,10.876-10.876A10.876,10.876,0,0,1,38.065,173.051Zm84.287,0a10.876,10.876,0,1,1,10.876-10.876A10.876,10.876,0,0,1,122.352,173.051ZM157.7,159.456H152.26v-5.438H157.7Zm0-10.876H146.822v10.876H138.44a1.318,1.318,0,0,0-.044-.171,16.128,16.128,0,0,0-.639-2.447c-.046-.136-.1-.272-.147-.4a16.236,16.236,0,0,0-1.047-2.265c-.054-.1-.117-.188-.171-.272a16.367,16.367,0,0,0-1.476-2.126l-.03-.035a16.413,16.413,0,0,0-1.816-1.841c-.068-.06-.133-.125-.2-.185a16.373,16.373,0,0,0-2.026-1.449c-.117-.071-.234-.144-.353-.215a16.237,16.237,0,0,0-2.221-1.066c-.133-.052-.272-.1-.405-.15a16.11,16.11,0,0,0-2.447-.68c-.106-.022-.218-.03-.326-.049a15.2,15.2,0,0,0-5.476,0c-.109.019-.218.03-.326.049a16.111,16.111,0,0,0-2.447.68c-.136.049-.272.1-.405.15a16.235,16.235,0,0,0-2.221,1.066c-.12.068-.234.141-.353.215a16.372,16.372,0,0,0-2.026,1.449c-.071.06-.133.125-.2.185a16.413,16.413,0,0,0-1.816,1.841l-.03.035a16.384,16.384,0,0,0-1.476,2.126c-.057.1-.117.188-.171.272a16.23,16.23,0,0,0-1.047,2.265c-.049.133-.1.272-.147.4a16.129,16.129,0,0,0-.639,2.447,1.439,1.439,0,0,1-.044.171H54.153a1.319,1.319,0,0,0-.044-.171,16.13,16.13,0,0,0-.639-2.447c-.046-.136-.1-.272-.147-.4a16.23,16.23,0,0,0-1.047-2.265c-.054-.1-.117-.188-.171-.272a16.363,16.363,0,0,0-1.476-2.126l-.03-.035a16.413,16.413,0,0,0-1.816-1.841c-.068-.06-.133-.125-.2-.185a16.346,16.346,0,0,0-2.026-1.449c-.117-.071-.234-.144-.353-.215a16.236,16.236,0,0,0-2.221-1.066c-.133-.052-.272-.1-.405-.15a16.11,16.11,0,0,0-2.447-.68c-.106-.022-.218-.03-.326-.049a15.2,15.2,0,0,0-5.476,0c-.109.019-.218.03-.326.049a16.11,16.11,0,0,0-2.447.68c-.136.049-.272.1-.405.15a16.236,16.236,0,0,0-2.221,1.066c-.12.068-.234.141-.353.215a16.372,16.372,0,0,0-2.026,1.449c-.071.06-.133.125-.2.185a16.413,16.413,0,0,0-1.816,1.841l-.03.035a16.384,16.384,0,0,0-1.476,2.126c-.057.1-.117.188-.171.272a16.231,16.231,0,0,0-1.047,2.265c-.049.133-.1.272-.147.4a16.129,16.129,0,0,0-.639,2.447,1.438,1.438,0,0,1-.043.171H5.438v-5.438H16.314V148.58H5.438V134.986H114.2V88.764h5.438V124.11H157.7Zm0-29.908H125.071V88.764H145.7l12,12Z" transform="translate(0 -47.98)" fill="#2d2d2d"/>
      </g>
    </g>
    <g id="Group_77" data-name="Group 77" transform="translate(119.633 129.548)">
      <g id="Group_76" data-name="Group 76">
        <rect id="Rectangle_151" data-name="Rectangle 151" width="10.876" height="5.438" fill="#2d2d2d"/>
      </g>
    </g>
    <g id="Group_79" data-name="Group 79" transform="translate(27.189 58.856)">
      <g id="Group_78" data-name="Group 78">
        <path id="Path_30" data-name="Path 30" d="M120.784,79.98H99.033A19.054,19.054,0,0,0,80,99.013v2.719h59.816V99.013A19.054,19.054,0,0,0,120.784,79.98ZM85.71,96.294A13.619,13.619,0,0,1,99.033,85.418h21.751a13.619,13.619,0,0,1,13.323,10.876Z" transform="translate(-80 -79.98)" fill="#2d2d2d"/>
      </g>
    </g>
    <g id="Group_81" data-name="Group 81" transform="translate(22.548 81.404)">
      <g id="Group_80" data-name="Group 80">
        <path id="Path_31" data-name="Path 31" d="M131.6,146.324l-5.438,5.438a4.978,4.978,0,0,1-7.031,0,10.424,10.424,0,0,0-14.72,0,4.978,4.978,0,0,1-7.031,0,10.424,10.424,0,0,0-14.72,0,4.978,4.978,0,0,1-7.031,0l-5.438-5.438-3.845,3.845,5.438,5.438a10.424,10.424,0,0,0,14.72,0,5.087,5.087,0,0,1,7.031,0,10.424,10.424,0,0,0,14.72,0,5.087,5.087,0,0,1,7.031,0,10.424,10.424,0,0,0,14.72,0l5.438-5.438Z" transform="translate(-66.344 -146.324)" fill="#2d2d2d"/>
      </g>
    </g>
    <g id="Group_83" data-name="Group 83" transform="translate(27.189 96.921)">
      <g id="Group_82" data-name="Group 82">
        <path id="Path_32" data-name="Path 32" d="M139.816,197.418V191.98H131.66a2.719,2.719,0,0,0-1.922.8l-8.953,8.953-8.953-8.953a2.719,2.719,0,0,0-1.922-.8H80v5.438h28.783l5.438,5.438H80v2.719a13.611,13.611,0,0,0,13.595,13.595h32.627a13.611,13.611,0,0,0,13.595-13.595v-2.719H127.347l5.438-5.438Zm-5.9,10.876a8.17,8.17,0,0,1-7.692,5.438H93.595a8.171,8.171,0,0,1-7.692-5.438Z" transform="translate(-80 -191.98)" fill="#2d2d2d"/>
      </g>
    </g>
    <g id="Group_85" data-name="Group 85" transform="translate(35.346 159.456)">
      <g id="Group_84" data-name="Group 84">
        <circle id="Ellipse_12" data-name="Ellipse 12" cx="2.719" cy="2.719" r="2.719" fill="#2d2d2d"/>
      </g>
    </g>
    <g id="Group_87" data-name="Group 87" transform="translate(119.633 159.456)">
      <g id="Group_86" data-name="Group 86">
        <circle id="Ellipse_13" data-name="Ellipse 13" cx="2.719" cy="2.719" r="2.719" fill="#2d2d2d"/>
      </g>
    </g>
  </g>
</svg>
