<svg xmlns="http://www.w3.org/2000/svg" width="133.763" height="132.195" viewBox="0 0 133.763 132.195">
  <g id="_222burger" data-name="222burger" transform="translate(0 -3.001)">
    <g id="Group_69" data-name="Group 69" transform="translate(106.7 79.088)">
      <g id="Group_68" data-name="Group 68">
        <path id="Path_26" data-name="Path 26" d="M413.586,296.337a2.634,2.634,0,0,0-.149-.489,2.577,2.577,0,0,0-.24-.452,2.593,2.593,0,0,0-.724-.721,2.616,2.616,0,0,0-.938-.389,2.586,2.586,0,0,0-1.022,0,2.633,2.633,0,0,0-.488.149,2.682,2.682,0,0,0-.452.24,2.537,2.537,0,0,0-.721.721,2.592,2.592,0,0,0-.24.452,2.659,2.659,0,0,0-.149.489,2.574,2.574,0,0,0-.052.509,2.62,2.62,0,0,0,.052.512,2.786,2.786,0,0,0,.149.488,2.666,2.666,0,0,0,.24.449,2.592,2.592,0,0,0,.721.724,2.671,2.671,0,0,0,.452.24,2.633,2.633,0,0,0,.488.149,2.567,2.567,0,0,0,.51.05,2.613,2.613,0,0,0,.512-.05,2.7,2.7,0,0,0,.489-.149,2.651,2.651,0,0,0,.449-.24,2.651,2.651,0,0,0,.724-.724,2.649,2.649,0,0,0,.24-.449,2.76,2.76,0,0,0,.149-.488,2.618,2.618,0,0,0,.052-.512A2.572,2.572,0,0,0,413.586,296.337Z" transform="translate(-408.411 -294.235)" fill="#2d2d2d"/>
      </g>
    </g>
    <g id="Group_71" data-name="Group 71" transform="translate(36.819 104.503)">
      <g id="Group_70" data-name="Group 70">
        <path id="Path_27" data-name="Path 27" d="M146.1,393.617a2.639,2.639,0,0,0-.149-.489,2.594,2.594,0,0,0-.24-.452,2.5,2.5,0,0,0-.324-.4,2.645,2.645,0,0,0-1.338-.713,2.587,2.587,0,0,0-1.022,0,2.769,2.769,0,0,0-.489.149,2.654,2.654,0,0,0-.449.24,2.516,2.516,0,0,0-.4.324,2.672,2.672,0,0,0-.327.4,2.594,2.594,0,0,0-.24.452,2.641,2.641,0,0,0-.149.489,2.653,2.653,0,0,0,0,1.022,2.766,2.766,0,0,0,.149.489,2.618,2.618,0,0,0,1.413,1.413,2.766,2.766,0,0,0,.489.149,2.622,2.622,0,0,0,2.359-.716,2.5,2.5,0,0,0,.324-.4,2.668,2.668,0,0,0,.24-.449,2.763,2.763,0,0,0,.149-.489,2.522,2.522,0,0,0,0-1.022Z" transform="translate(-140.931 -391.515)" fill="#2d2d2d"/>
      </g>
    </g>
    <g id="Group_73" data-name="Group 73" transform="translate(0 3.001)">
      <g id="Group_72" data-name="Group 72">
        <path id="Path_28" data-name="Path 28" d="M133.763,97.638a10.8,10.8,0,0,0-5.1-9.168,34.055,34.055,0,0,0-33.76-29.6H74.051l.433-5.157h1.384A2.613,2.613,0,0,0,78.48,51.1V38.833a2.613,2.613,0,0,0-2.613-2.613H71.216l-2.122-8.573a2.612,2.612,0,0,0-2.536-1.985H42.044V8.226h10.1a2.613,2.613,0,1,0,0-5.225H39.431a2.613,2.613,0,0,0-2.613,2.613V25.662H12.3a2.612,2.612,0,0,0-2.536,1.985L7.645,36.22H2.613A2.613,2.613,0,0,0,0,38.833V51.1a2.613,2.613,0,0,0,2.613,2.613H4l6.611,78.811a2.612,2.612,0,0,0,2.6,2.394l92.226.274a23.472,23.472,0,0,0,23.212-19.708,6.943,6.943,0,0,0,2.573-5.369,6.872,6.872,0,0,0-1.391-4.153A10.782,10.782,0,0,0,133.763,97.638Zm-6.13-3.041H71.055l.212-2.533h51.7A5.574,5.574,0,0,1,127.634,94.6ZM78.874,64.1h1.849v3.545a2.613,2.613,0,1,0,5.225,0V64.1H87.8l6.458,5.53a2.613,2.613,0,1,0,3.4-3.969l-1.8-1.545a29.06,29.06,0,0,1,27.234,22.724H71.705l.212-2.526h27.27a2.613,2.613,0,0,0,0-5.225H72.356l.85-10.135ZM14.348,30.887H64.514l1.32,5.333H13.028ZM5.225,41.445h68.03v7.046H5.225Zm31.593,46.61v8.909a2.613,2.613,0,1,0,5.225,0V88.055H57.237L54.608,119.4H23.872L21.243,88.055ZM20.8,82.83,19.227,64.017H36.818V82.83H20.8Zm21.239,0V64.017h17.21L57.676,82.83ZM15.613,129.7,9.24,53.717H36.818v5.075H16.386a2.612,2.612,0,0,0-2.6,2.831l5.083,60.6a2.613,2.613,0,0,0,2.6,2.394H57.011a2.613,2.613,0,0,0,2.6-2.394l5.083-60.6a2.612,2.612,0,0,0-2.6-2.831H42.044V53.717h27.2l-.633,7.545v.007L62.868,129.7H15.613Zm89.842.274-37.346-.255.9-10.672a12.577,12.577,0,0,1,2.968,1.808,14.019,14.019,0,0,0,9.254,3.364h.037a14.017,14.017,0,0,0,9.254-3.364c1.832-1.357,3.156-2.338,6.143-2.338s4.311.98,6.143,2.338a14.016,14.016,0,0,0,9.253,3.364c4.43,0,7.382-2.59,9.754-4.67l.266-.233A18.26,18.26,0,0,1,105.455,129.971Zm19.338-18.239h0l-.024.007-.022.006-.018,0-.042.01a8.645,8.645,0,0,0-.933.262,16.269,16.269,0,0,0-5.3,3.521l-.086.076c-2.063,1.81-3.845,3.373-6.308,3.373-2.987,0-4.31-.981-6.143-2.338a14.408,14.408,0,0,0-18.506,0c-1.833,1.357-3.157,2.338-6.145,2.338h-.037c-2.988,0-4.312-.981-6.144-2.338a15.369,15.369,0,0,0-5.631-2.939l.443-5.277h54.422a1.682,1.682,0,0,1,.478,3.3Zm-1.829-8.52H70.332l.284-3.39h57.476A5.583,5.583,0,0,1,122.964,103.212Z" transform="translate(0 -3.001)" fill="#2d2d2d"/>
      </g>
    </g>
  </g>
</svg>
